# xmcd CD database file
#
# Track frame offsets:
#	150
#	20641
#	38830
#	59582
#	69245
#	89210
#	103662
#	121367
#	131368
#	149191
#	164338
#	187534
#	207695
#	229097
#	247750
#	276818
#	287364
#	302538
#
# Disc length: 4287 seconds
#
# Revision: 0
# Processed by: cddbd v1.5.2PL0 Copyright (c) Steve Scherf et al.
# Submitted via: CDex 1.70beta2
#
DISCID=0610bd12
DTITLE=Moby - 18
DYEAR=2002
DGENRE=New Age
TTITLE0=We Are All Made Of Stars
TTITLE1=In This World
TTITLE2=In My Heart
TTITLE3=Great Escape
TTITLE4=Signs Of Love
TTITLE5=One Of This Mornings
TTITLE6=Another Woman
TTITLE7=Fireworks
TTITLE8=Extreme Ways
TTITLE9=Jam For The Ladies
TTITLE10=Sunday (The Day Before My Birthday)
TTITLE11=18
TTITLE12=Sleep Alone
TTITLE13=At Least We Tried
TTITLE14=Harbour
TTITLE15=Look Back In
TTITLE16=The Rafters
TTITLE17=I'm Not Worried At All
EXTD=YEAR: 2002
EXTT0=
EXTT1=
EXTT2=
EXTT3=
EXTT4=
EXTT5=
EXTT6=
EXTT7=
EXTT8=
EXTT9=
EXTT10=
EXTT11=
EXTT12=
EXTT13=
EXTT14=
EXTT15=
EXTT16=
EXTT17=
PLAYORDER=
